# xmcd
#
# Track frame offsets:
#	150
#	12170
#	27460
#	40160
#	53660
#	68277
#	79742
#	97417
#	107962
#	119547
#	133085
#	148275
#	162945
#	175715
#	189815
#	198052
#
# Disc length: 2795
#
# Revision: 6
# Processed by: cddbd v1.5.1PL0 Copyright (c) Steve Scherf et al.
# Submitted via: Axialis_AX_CDPlayer 2.6
# Normalized: r3:DSETVAR1,TDELIM( - ),TSWAP
#
DISCID=d70ae910
DTITLE=Various Artist - The Ultimate Classic Country 2: Disc 1
DYEAR=1900
DGENRE=Country
TTITLE0=Tammy Wynette - Stand By Your Man
TTITLE1=B.J. Thomas - Somebody Done Somebody Wrong Song
TTITLE2=Johnny Horton - North To Alaska
TTITLE3=Loretta Lynn - Coal Miner's Daughter
TTITLE4=Eddie Rabbitt - Drivin' My Life Away
TTITLE5=Ricky Nelson - Poor Little Fool
TTITLE6=Linda Ronstadt - Blue Bayou
TTITLE7=Everly Brothers - All I Have To Do Is Dream
TTITLE8=Sammi Smith - Help Me Make It Through The Night
TTITLE9=Claude King - Wolverton Mountain
TTITLE10=Nitty Gritty Dirt Band - Fishin' In The Dark
TTITLE11=Jeannie C. Riley - Harper Valley P.T.A.
TTITLE12=Johnny Tillotson - It Keeps Right On Hurtin'
TTITLE13=Randy Travis - On The Other Hand
TTITLE14=Johnny Cash - Guess Things Happen That Way
TTITLE15=Jack Green - There Goes My Everything
EXTD=
EXTT0=
EXTT1=
EXTT2=
EXTT3=
EXTT4=
EXTT5=
EXTT6=
EXTT7=
EXTT8=
EXTT9=
EXTT10=
EXTT11=
EXTT12=
EXTT13=
EXTT14=
EXTT15=
PLAYORDER=
